<svg xmlns="http://www.w3.org/2000/svg" xmlns:xlink="http://www.w3.org/1999/xlink" width="500" zoomAndPan="magnify" viewBox="0 0 375 374.999991" height="500" preserveAspectRatio="xMidYMid meet" version="1.0"><defs><g/><clipPath id="f6022129b0"><path d="M 23.375 162.34375 L 94.25 162.34375 L 94.25 233.21875 L 23.375 233.21875 Z M 23.375 162.34375 " clip-rule="nonzero"/></clipPath><clipPath id="575fc90b9d"><path d="M 33.007812 171.503906 L 84.621094 171.503906 L 84.621094 224.0625 L 33.007812 224.0625 Z M 33.007812 171.503906 " clip-rule="nonzero"/></clipPath><clipPath id="c39ae49b9b"><path d="M 65.804688 203.667969 L 84.617188 203.667969 L 84.617188 233.210938 L 65.804688 233.210938 Z M 65.804688 203.667969 " clip-rule="nonzero"/></clipPath><clipPath id="2e09da3a4d"><path d="M 65.804688 218.464844 L 84.617188 203.71875 L 84.617188 233.210938 Z M 65.804688 218.464844 " clip-rule="nonzero"/></clipPath><clipPath id="62d155f74b"><path d="M 23.253906 161.871094 L 33.003906 161.871094 L 33.003906 171.492188 L 23.253906 171.492188 Z M 23.253906 161.871094 " clip-rule="nonzero"/></clipPath><clipPath id="9c0abfcec2"><path d="M 84.621094 224.0625 L 94.371094 224.0625 L 94.371094 233.8125 L 84.621094 233.8125 Z M 84.621094 224.0625 " clip-rule="nonzero"/></clipPath></defs><g clip-path="url(#f6022129b0)"><path fill="#ffffff" d="M 23.375 162.34375 L 94.25 162.34375 L 94.25 233.21875 L 23.375 233.21875 Z M 23.375 162.34375 " fill-opacity="1" fill-rule="nonzero"/></g><g clip-path="url(#575fc90b9d)"><path fill="#171717" d="M 33.007812 171.503906 L 84.621094 171.503906 L 84.621094 224.125 L 33.007812 224.125 Z M 33.007812 171.503906 " fill-opacity="1" fill-rule="nonzero"/></g><g clip-path="url(#c39ae49b9b)"><g clip-path="url(#2e09da3a4d)"><path fill="#171717" d="M 65.804688 233.210938 L 65.804688 203.738281 L 84.617188 203.738281 L 84.617188 233.210938 Z M 65.804688 233.210938 " fill-opacity="1" fill-rule="nonzero"/></g></g><g clip-path="url(#62d155f74b)"><path fill="#171717" d="M 33.003906 161.878906 L 23.253906 171.484375 L 23.253906 161.878906 Z M 33.003906 161.878906 " fill-opacity="1" fill-rule="nonzero"/></g><g clip-path="url(#9c0abfcec2)"><path fill="#171717" d="M 84.621094 233.675781 L 94.371094 224.070312 L 94.371094 233.675781 Z M 84.621094 233.675781 " fill-opacity="1" fill-rule="nonzero"/></g><g fill="#ffffff" fill-opacity="1"><g transform="translate(108.233501, 189.160048)"><g><path d="M 13.671875 0.609375 C 9.773438 0.609375 6.753906 -0.492188 4.609375 -2.703125 C 2.460938 -4.921875 1.390625 -7.988281 1.390625 -11.90625 L 1.390625 -28.5625 L 7.75 -28.5625 L 7.75 -11.625 C 7.75 -7.164062 9.722656 -4.9375 13.671875 -4.9375 C 15.597656 -4.9375 17.070312 -5.484375 18.09375 -6.578125 C 19.113281 -7.679688 19.625 -9.363281 19.625 -11.625 L 19.625 -28.5625 L 25.984375 -28.5625 L 25.984375 -11.90625 C 25.984375 -7.914062 24.894531 -4.832031 22.71875 -2.65625 C 20.539062 -0.476562 17.523438 0.609375 13.671875 0.609375 Z M 13.671875 0.609375 "/></g></g></g><g fill="#ffffff" fill-opacity="1"><g transform="translate(134.87579, 189.160048)"><g><path d="M 15.671875 -12.03125 C 15.671875 -13.476562 15.382812 -14.523438 14.8125 -15.171875 C 14.238281 -15.828125 13.394531 -16.15625 12.28125 -16.15625 C 11.03125 -16.15625 9.984375 -15.710938 9.140625 -14.828125 C 8.296875 -13.941406 7.859375 -12.46875 7.828125 -10.40625 L 7.828125 0 L 1.796875 0 L 1.796875 -20.71875 L 7.296875 -20.71875 L 7.296875 -17.90625 C 8.628906 -20.21875 10.832031 -21.375 13.90625 -21.375 C 16.351562 -21.375 18.269531 -20.644531 19.65625 -19.1875 C 21.050781 -17.738281 21.75 -15.707031 21.75 -13.09375 L 21.75 0 L 15.671875 0 Z M 15.671875 -12.03125 "/></g></g></g><g fill="#ffffff" fill-opacity="1"><g transform="translate(157.111669, 189.160048)"><g><path d="M 12.5625 0 C 9.925781 0 7.882812 -0.691406 6.4375 -2.078125 C 5 -3.460938 4.28125 -5.394531 4.28125 -7.875 L 4.28125 -15.671875 L 0.484375 -15.671875 L 0.484375 -20.71875 L 2.984375 -20.71875 C 4.117188 -20.71875 4.6875 -21.265625 4.6875 -22.359375 L 4.6875 -26.921875 L 10.203125 -26.921875 L 10.203125 -20.71875 L 14.609375 -20.71875 L 14.609375 -15.671875 L 10.359375 -15.671875 L 10.359375 -6.28125 C 10.359375 -5.46875 10.78125 -5.0625 11.625 -5.0625 L 15.046875 -5.0625 L 15.046875 0 Z M 12.5625 0 "/></g></g></g><g fill="#ffffff" fill-opacity="1"><g transform="translate(171.921945, 189.160048)"><g><path d="M 1.796875 0 L 1.796875 -20.71875 L 7.828125 -20.71875 L 7.828125 0 Z M 4.859375 -23.015625 C 3.816406 -23.015625 2.945312 -23.332031 2.25 -23.96875 C 1.5625 -24.601562 1.21875 -25.410156 1.21875 -26.390625 C 1.21875 -27.347656 1.5625 -28.160156 2.25 -28.828125 C 2.945312 -29.492188 3.816406 -29.828125 4.859375 -29.828125 C 5.890625 -29.828125 6.75 -29.492188 7.4375 -28.828125 C 8.132812 -28.160156 8.484375 -27.347656 8.484375 -26.390625 C 8.484375 -25.410156 8.132812 -24.601562 7.4375 -23.96875 C 6.75 -23.332031 5.890625 -23.015625 4.859375 -23.015625 Z M 4.859375 -23.015625 "/></g></g></g><g fill="#ffffff" fill-opacity="1"><g transform="translate(180.857012, 189.160048)"><g><path d="M 12.5625 0 C 9.925781 0 7.882812 -0.691406 6.4375 -2.078125 C 5 -3.460938 4.28125 -5.394531 4.28125 -7.875 L 4.28125 -15.671875 L 0.484375 -15.671875 L 0.484375 -20.71875 L 2.984375 -20.71875 C 4.117188 -20.71875 4.6875 -21.265625 4.6875 -22.359375 L 4.6875 -26.921875 L 10.203125 -26.921875 L 10.203125 -20.71875 L 14.609375 -20.71875 L 14.609375 -15.671875 L 10.359375 -15.671875 L 10.359375 -6.28125 C 10.359375 -5.46875 10.78125 -5.0625 11.625 -5.0625 L 15.046875 -5.0625 L 15.046875 0 Z M 12.5625 0 "/></g></g></g><g fill="#ffffff" fill-opacity="1"><g transform="translate(195.667289, 189.160048)"><g><path d="M 7.875 0 C 3.820312 0 1.796875 -1.957031 1.796875 -5.875 L 1.796875 -28.5625 L 7.828125 -28.5625 L 7.828125 -5.0625 L 10.234375 -5.0625 L 10.234375 0 Z M 7.875 0 "/></g></g></g><g fill="#ffffff" fill-opacity="1"><g transform="translate(205.703958, 189.160048)"><g><path d="M 11.875 0.65625 C 9.644531 0.65625 7.707031 0.203125 6.0625 -0.703125 C 4.414062 -1.617188 3.140625 -2.90625 2.234375 -4.5625 C 1.335938 -6.226562 0.890625 -8.175781 0.890625 -10.40625 C 0.890625 -12.601562 1.332031 -14.523438 2.21875 -16.171875 C 3.101562 -17.816406 4.367188 -19.09375 6.015625 -20 C 7.660156 -20.914062 9.613281 -21.375 11.875 -21.375 C 14.375 -21.375 16.4375 -20.828125 18.0625 -19.734375 C 19.695312 -18.648438 20.859375 -17.160156 21.546875 -15.265625 C 22.242188 -13.378906 22.40625 -11.210938 22.03125 -8.765625 L 6.9375 -8.765625 C 7.101562 -7.273438 7.613281 -6.128906 8.46875 -5.328125 C 9.320312 -4.523438 10.457031 -4.125 11.875 -4.125 C 12.988281 -4.125 13.90625 -4.351562 14.625 -4.8125 C 15.34375 -5.269531 15.800781 -5.816406 16 -6.453125 L 21.953125 -6.453125 C 21.703125 -5.054688 21.128906 -3.828125 20.234375 -2.765625 C 19.335938 -1.710938 18.175781 -0.878906 16.75 -0.265625 C 15.320312 0.347656 13.695312 0.65625 11.875 0.65625 Z M 7.0625 -12.6875 L 16.203125 -12.6875 C 16.171875 -13.96875 15.757812 -14.96875 14.96875 -15.6875 C 14.1875 -16.40625 13.113281 -16.765625 11.75 -16.765625 C 10.519531 -16.765625 9.488281 -16.429688 8.65625 -15.765625 C 7.832031 -15.097656 7.300781 -14.070312 7.0625 -12.6875 Z M 7.0625 -12.6875 "/></g></g></g><g fill="#ffffff" fill-opacity="1"><g transform="translate(228.10305, 189.160048)"><g><path d="M 10.28125 0.65625 C 8.457031 0.65625 6.835938 0.210938 5.421875 -0.671875 C 4.003906 -1.554688 2.894531 -2.820312 2.09375 -4.46875 C 1.289062 -6.113281 0.890625 -8.078125 0.890625 -10.359375 C 0.890625 -12.671875 1.289062 -14.640625 2.09375 -16.265625 C 2.894531 -17.898438 4.003906 -19.160156 5.421875 -20.046875 C 6.835938 -20.929688 8.457031 -21.375 10.28125 -21.375 C 13 -21.375 15.148438 -20.4375 16.734375 -18.5625 L 16.734375 -28.5625 L 22.765625 -28.5625 L 22.765625 0 L 17.296875 0 L 17.296875 -2.8125 C 15.660156 -0.5 13.320312 0.65625 10.28125 0.65625 Z M 11.953125 -4.453125 C 13.453125 -4.453125 14.648438 -4.988281 15.546875 -6.0625 C 16.441406 -7.132812 16.890625 -8.566406 16.890625 -10.359375 C 16.890625 -12.160156 16.441406 -13.601562 15.546875 -14.6875 C 14.648438 -15.769531 13.453125 -16.3125 11.953125 -16.3125 C 10.453125 -16.3125 9.257812 -15.769531 8.375 -14.6875 C 7.5 -13.601562 7.0625 -12.160156 7.0625 -10.359375 C 7.0625 -8.566406 7.5 -7.132812 8.375 -6.0625 C 9.257812 -4.988281 10.453125 -4.453125 11.953125 -4.453125 Z M 11.953125 -4.453125 "/></g></g></g><g fill="#ffffff" fill-opacity="1"><g transform="translate(108.233501, 233.253088)"><g><path d="M 1.796875 0 L 1.796875 -28.5625 L 23.421875 -28.5625 L 23.421875 -23.015625 L 8.15625 -23.015625 L 8.15625 -16.9375 L 22.03125 -16.9375 L 22.03125 -11.375 L 8.15625 -11.375 L 8.15625 0 Z M 1.796875 0 "/></g></g></g><g fill="#ffffff" fill-opacity="1"><g transform="translate(131.407784, 233.253088)"><g><path d="M 1.796875 0 L 1.796875 -20.71875 L 7.828125 -20.71875 L 7.828125 0 Z M 4.859375 -23.015625 C 3.816406 -23.015625 2.945312 -23.332031 2.25 -23.96875 C 1.5625 -24.601562 1.21875 -25.410156 1.21875 -26.390625 C 1.21875 -27.347656 1.5625 -28.160156 2.25 -28.828125 C 2.945312 -29.492188 3.816406 -29.828125 4.859375 -29.828125 C 5.890625 -29.828125 6.75 -29.492188 7.4375 -28.828125 C 8.132812 -28.160156 8.484375 -27.347656 8.484375 -26.390625 C 8.484375 -25.410156 8.132812 -24.601562 7.4375 -23.96875 C 6.75 -23.332031 5.890625 -23.015625 4.859375 -23.015625 Z M 4.859375 -23.015625 "/></g></g></g><g fill="#ffffff" fill-opacity="1"><g transform="translate(140.342852, 233.253088)"><g><path d="M 7.875 0 C 3.820312 0 1.796875 -1.957031 1.796875 -5.875 L 1.796875 -28.5625 L 7.828125 -28.5625 L 7.828125 -5.0625 L 10.234375 -5.0625 L 10.234375 0 Z M 7.875 0 "/></g></g></g><g fill="#ffffff" fill-opacity="1"><g transform="translate(150.379524, 233.253088)"><g><path d="M 1.796875 0 L 1.796875 -20.71875 L 7.296875 -20.71875 L 7.296875 -17.953125 C 8.578125 -20.234375 10.632812 -21.375 13.46875 -21.375 C 14.988281 -21.375 16.296875 -21.035156 17.390625 -20.359375 C 18.492188 -19.679688 19.332031 -18.71875 19.90625 -17.46875 C 20.53125 -18.738281 21.394531 -19.707031 22.5 -20.375 C 23.601562 -21.039062 24.890625 -21.375 26.359375 -21.375 C 28.609375 -21.375 30.394531 -20.644531 31.71875 -19.1875 C 33.039062 -17.738281 33.703125 -15.722656 33.703125 -13.140625 L 33.703125 0 L 27.625 0 L 27.625 -12.359375 C 27.625 -14.890625 26.65625 -16.15625 24.71875 -16.15625 C 24.09375 -16.15625 23.472656 -15.976562 22.859375 -15.625 C 22.253906 -15.269531 21.757812 -14.695312 21.375 -13.90625 C 21 -13.125 20.796875 -12.066406 20.765625 -10.734375 L 20.765625 0 L 14.734375 0 L 14.734375 -12.359375 C 14.734375 -14.890625 13.765625 -16.15625 11.828125 -16.15625 C 10.796875 -16.15625 9.878906 -15.722656 9.078125 -14.859375 C 8.273438 -14.003906 7.859375 -12.628906 7.828125 -10.734375 L 7.828125 0 Z M 1.796875 0 "/></g></g></g><g fill="#ffffff" fill-opacity="1"><g transform="translate(184.569836, 233.253088)"><g/></g></g><g fill="#ffffff" fill-opacity="1"><g transform="translate(194.035297, 233.253088)"><g><path d="M 1.796875 0 L 1.796875 -28.5625 L 16 -28.5625 C 19.09375 -28.5625 21.539062 -27.75 23.34375 -26.125 C 25.15625 -24.507812 26.0625 -22.300781 26.0625 -19.5 C 26.0625 -16.78125 25.171875 -14.585938 23.390625 -12.921875 C 21.609375 -11.265625 19.144531 -10.4375 16 -10.4375 L 8.15625 -10.4375 L 8.15625 0 Z M 15.5 -16.03125 C 16.78125 -16.03125 17.773438 -16.34375 18.484375 -16.96875 C 19.191406 -17.59375 19.546875 -18.460938 19.546875 -19.578125 C 19.546875 -20.640625 19.191406 -21.476562 18.484375 -22.09375 C 17.773438 -22.707031 16.78125 -23.015625 15.5 -23.015625 L 8.15625 -23.015625 L 8.15625 -16.03125 Z M 15.5 -16.03125 "/></g></g></g><g fill="#ffffff" fill-opacity="1"><g transform="translate(219.861585, 233.253088)"><g><path d="M 1.625 -14.84375 C 1.625 -18.757812 3.648438 -20.71875 7.703125 -20.71875 L 14.53125 -20.71875 L 14.53125 -15.671875 L 7.703125 -15.671875 L 7.703125 0 L 1.625 0 Z M 1.625 -14.84375 "/></g></g></g><g fill="#ffffff" fill-opacity="1"><g transform="translate(234.141455, 233.253088)"><g><path d="M 12.03125 0.65625 C 9.78125 0.65625 7.816406 0.191406 6.140625 -0.734375 C 4.460938 -1.660156 3.164062 -2.945312 2.25 -4.59375 C 1.34375 -6.238281 0.890625 -8.160156 0.890625 -10.359375 C 0.890625 -12.585938 1.34375 -14.523438 2.25 -16.171875 C 3.164062 -17.816406 4.460938 -19.09375 6.140625 -20 C 7.816406 -20.914062 9.78125 -21.375 12.03125 -21.375 C 14.289062 -21.375 16.25 -20.914062 17.90625 -20 C 19.5625 -19.09375 20.84375 -17.816406 21.75 -16.171875 C 22.664062 -14.523438 23.125 -12.585938 23.125 -10.359375 C 23.125 -8.160156 22.664062 -6.238281 21.75 -4.59375 C 20.84375 -2.945312 19.5625 -1.660156 17.90625 -0.734375 C 16.25 0.191406 14.289062 0.65625 12.03125 0.65625 Z M 12.03125 -4.453125 C 13.53125 -4.453125 14.726562 -4.988281 15.625 -6.0625 C 16.519531 -7.132812 16.96875 -8.566406 16.96875 -10.359375 C 16.96875 -12.160156 16.519531 -13.601562 15.625 -14.6875 C 14.726562 -15.769531 13.53125 -16.3125 12.03125 -16.3125 C 10.539062 -16.3125 9.335938 -15.769531 8.421875 -14.6875 C 7.515625 -13.601562 7.0625 -12.160156 7.0625 -10.359375 C 7.0625 -8.566406 7.515625 -7.132812 8.421875 -6.0625 C 9.335938 -4.988281 10.539062 -4.453125 12.03125 -4.453125 Z M 12.03125 -4.453125 "/></g></g></g><g fill="#ffffff" fill-opacity="1"><g transform="translate(257.438144, 233.253088)"><g><path d="M -1.625 8.15625 L -1.625 3.09375 L 0.53125 3.09375 C 0.988281 3.09375 1.3125 3 1.5 2.8125 C 1.695312 2.625 1.796875 2.3125 1.796875 1.875 L 1.796875 -20.71875 L 7.828125 -20.71875 L 7.828125 0.28125 C 7.828125 2.757812 7.117188 4.691406 5.703125 6.078125 C 4.296875 7.460938 2.257812 8.15625 -0.40625 8.15625 Z M 4.859375 -23.015625 C 3.816406 -23.015625 2.945312 -23.332031 2.25 -23.96875 C 1.5625 -24.601562 1.21875 -25.410156 1.21875 -26.390625 C 1.21875 -27.347656 1.5625 -28.160156 2.25 -28.828125 C 2.945312 -29.492188 3.816406 -29.828125 4.859375 -29.828125 C 5.890625 -29.828125 6.75 -29.492188 7.4375 -28.828125 C 8.132812 -28.160156 8.484375 -27.347656 8.484375 -26.390625 C 8.484375 -25.410156 8.132812 -24.601562 7.4375 -23.96875 C 6.75 -23.332031 5.890625 -23.015625 4.859375 -23.015625 Z M 4.859375 -23.015625 "/></g></g></g><g fill="#ffffff" fill-opacity="1"><g transform="translate(266.373211, 233.253088)"><g><path d="M 11.875 0.65625 C 9.644531 0.65625 7.707031 0.203125 6.0625 -0.703125 C 4.414062 -1.617188 3.140625 -2.90625 2.234375 -4.5625 C 1.335938 -6.226562 0.890625 -8.175781 0.890625 -10.40625 C 0.890625 -12.601562 1.332031 -14.523438 2.21875 -16.171875 C 3.101562 -17.816406 4.367188 -19.09375 6.015625 -20 C 7.660156 -20.914062 9.613281 -21.375 11.875 -21.375 C 14.375 -21.375 16.4375 -20.828125 18.0625 -19.734375 C 19.695312 -18.648438 20.859375 -17.160156 21.546875 -15.265625 C 22.242188 -13.378906 22.40625 -11.210938 22.03125 -8.765625 L 6.9375 -8.765625 C 7.101562 -7.273438 7.613281 -6.128906 8.46875 -5.328125 C 9.320312 -4.523438 10.457031 -4.125 11.875 -4.125 C 12.988281 -4.125 13.90625 -4.351562 14.625 -4.8125 C 15.34375 -5.269531 15.800781 -5.816406 16 -6.453125 L 21.953125 -6.453125 C 21.703125 -5.054688 21.128906 -3.828125 20.234375 -2.765625 C 19.335938 -1.710938 18.175781 -0.878906 16.75 -0.265625 C 15.320312 0.347656 13.695312 0.65625 11.875 0.65625 Z M 7.0625 -12.6875 L 16.203125 -12.6875 C 16.171875 -13.96875 15.757812 -14.96875 14.96875 -15.6875 C 14.1875 -16.40625 13.113281 -16.765625 11.75 -16.765625 C 10.519531 -16.765625 9.488281 -16.429688 8.65625 -15.765625 C 7.832031 -15.097656 7.300781 -14.070312 7.0625 -12.6875 Z M 7.0625 -12.6875 "/></g></g></g><g fill="#ffffff" fill-opacity="1"><g transform="translate(288.772297, 233.253088)"><g><path d="M 11.90625 0.65625 C 9.707031 0.65625 7.785156 0.203125 6.140625 -0.703125 C 4.492188 -1.617188 3.207031 -2.90625 2.28125 -4.5625 C 1.351562 -6.226562 0.890625 -8.160156 0.890625 -10.359375 C 0.890625 -12.566406 1.34375 -14.5 2.25 -16.15625 C 3.164062 -17.8125 4.453125 -19.09375 6.109375 -20 C 7.773438 -20.914062 9.695312 -21.375 11.875 -21.375 C 14.757812 -21.375 17.128906 -20.582031 18.984375 -19 C 20.847656 -17.425781 21.945312 -15.226562 22.28125 -12.40625 L 16.234375 -12.40625 C 16.078125 -13.570312 15.601562 -14.515625 14.8125 -15.234375 C 14.019531 -15.953125 13.023438 -16.3125 11.828125 -16.3125 C 10.359375 -16.3125 9.195312 -15.769531 8.34375 -14.6875 C 7.488281 -13.601562 7.0625 -12.160156 7.0625 -10.359375 C 7.0625 -8.566406 7.507812 -7.132812 8.40625 -6.0625 C 9.300781 -4.988281 10.457031 -4.453125 11.875 -4.453125 C 13.070312 -4.453125 14.082031 -4.8125 14.90625 -5.53125 C 15.738281 -6.25 16.25 -7.191406 16.4375 -8.359375 L 22.484375 -8.359375 C 22.285156 -6.535156 21.722656 -4.953125 20.796875 -3.609375 C 19.878906 -2.265625 18.664062 -1.21875 17.15625 -0.46875 C 15.644531 0.28125 13.894531 0.65625 11.90625 0.65625 Z M 11.90625 0.65625 "/></g></g></g><g fill="#ffffff" fill-opacity="1"><g transform="translate(311.416185, 233.253088)"><g><path d="M 12.5625 0 C 9.925781 0 7.882812 -0.691406 6.4375 -2.078125 C 5 -3.460938 4.28125 -5.394531 4.28125 -7.875 L 4.28125 -15.671875 L 0.484375 -15.671875 L 0.484375 -20.71875 L 2.984375 -20.71875 C 4.117188 -20.71875 4.6875 -21.265625 4.6875 -22.359375 L 4.6875 -26.921875 L 10.203125 -26.921875 L 10.203125 -20.71875 L 14.609375 -20.71875 L 14.609375 -15.671875 L 10.359375 -15.671875 L 10.359375 -6.28125 C 10.359375 -5.46875 10.78125 -5.0625 11.625 -5.0625 L 15.046875 -5.0625 L 15.046875 0 Z M 12.5625 0 "/></g></g></g><g fill="#ffffff" fill-opacity="1"><g transform="translate(326.226461, 233.253088)"><g><path d="M 5.296875 0.609375 C 4.242188 0.609375 3.367188 0.289062 2.671875 -0.34375 C 1.972656 -0.988281 1.625 -1.800781 1.625 -2.78125 C 1.625 -3.726562 1.972656 -4.535156 2.671875 -5.203125 C 3.367188 -5.867188 4.242188 -6.203125 5.296875 -6.203125 C 6.335938 -6.203125 7.203125 -5.867188 7.890625 -5.203125 C 8.585938 -4.535156 8.9375 -3.726562 8.9375 -2.78125 C 8.9375 -1.800781 8.585938 -0.988281 7.890625 -0.34375 C 7.203125 0.289062 6.335938 0.609375 5.296875 0.609375 Z M 5.296875 0.609375 "/></g></g></g></svg>